<?xml version="1.0" standalone="no"?>
<svg xmlns:xlink="http://www.w3.org/1999/xlink" id="wave" style="transform:rotate(0deg); transition: 0.3s" viewBox="0 0 1440 490" version="1.1" xmlns="http://www.w3.org/2000/svg"><defs><linearGradient id="sw-gradient-0" x1="0" x2="0" y1="1" y2="0"><stop stop-color="rgba(243, 106, 62, 1)" offset="0%"/><stop stop-color="rgba(255, 179, 11, 1)" offset="100%"/></linearGradient></defs><path style="transform:translate(0, 0px); opacity:1" fill="url(#sw-gradient-0)" d="M0,245L48,253.2C96,261,192,278,288,269.5C384,261,480,229,576,228.7C672,229,768,261,864,277.7C960,294,1056,294,1152,261.3C1248,229,1344,163,1440,122.5C1536,82,1632,65,1728,98C1824,131,1920,212,2016,245C2112,278,2208,261,2304,212.3C2400,163,2496,82,2592,98C2688,114,2784,229,2880,302.2C2976,376,3072,408,3168,400.2C3264,392,3360,343,3456,343C3552,343,3648,392,3744,383.8C3840,376,3936,310,4032,236.8C4128,163,4224,82,4320,73.5C4416,65,4512,131,4608,130.7C4704,131,4800,65,4896,81.7C4992,98,5088,196,5184,220.5C5280,245,5376,196,5472,204.2C5568,212,5664,278,5760,277.7C5856,278,5952,212,6048,163.3C6144,114,6240,82,6336,122.5C6432,163,6528,278,6624,269.5C6720,261,6816,131,6864,65.3L6912,0L6912,490L6864,490C6816,490,6720,490,6624,490C6528,490,6432,490,6336,490C6240,490,6144,490,6048,490C5952,490,5856,490,5760,490C5664,490,5568,490,5472,490C5376,490,5280,490,5184,490C5088,490,4992,490,4896,490C4800,490,4704,490,4608,490C4512,490,4416,490,4320,490C4224,490,4128,490,4032,490C3936,490,3840,490,3744,490C3648,490,3552,490,3456,490C3360,490,3264,490,3168,490C3072,490,2976,490,2880,490C2784,490,2688,490,2592,490C2496,490,2400,490,2304,490C2208,490,2112,490,2016,490C1920,490,1824,490,1728,490C1632,490,1536,490,1440,490C1344,490,1248,490,1152,490C1056,490,960,490,864,490C768,490,672,490,576,490C480,490,384,490,288,490C192,490,96,490,48,490L0,490Z"/></svg>